<svg width="165" height="47" viewBox="0 0 165 47" fill="none" xmlns="http://www.w3.org/2000/svg">
<path d="M65.512 36.396C64.96 36.396 64.288 36.36 63.496 36.288C60.928 36.096 58.672 36 56.728 36C56.2 35.328 55.936 34.56 55.936 33.696C56.728 33.696 57.292 33.564 57.628 33.3C57.988 33.012 58.168 32.532 58.168 31.86V14.94C58.168 14.292 57.988 13.836 57.628 13.572C57.292 13.284 56.728 13.14 55.936 13.14C55.936 12.228 56.2 11.472 56.728 10.872C58.552 10.872 60.196 10.824 61.66 10.728C63.124 10.632 63.988 10.572 64.252 10.548C65.068 10.476 65.656 10.44 66.016 10.44C68.68 10.44 70.912 10.992 72.712 12.096C74.536 13.2 75.88 14.7 76.744 16.596C77.632 18.468 78.076 20.568 78.076 22.896C78.076 25.464 77.62 27.768 76.708 29.808C75.82 31.824 74.44 33.432 72.568 34.632C70.696 35.808 68.344 36.396 65.512 36.396ZM65.224 33.408C67.288 33.408 68.872 32.628 69.976 31.068C71.104 29.484 71.668 26.94 71.668 23.436C71.668 20.052 71.068 17.52 69.868 15.84C68.692 14.16 67.048 13.32 64.936 13.32C64.528 13.32 64.24 13.344 64.072 13.392V33.336C64.312 33.384 64.696 33.408 65.224 33.408ZM89.7749 36.468C87.1349 36.468 85.0229 35.64 83.4389 33.984C81.8549 32.304 81.0629 29.916 81.0629 26.82C81.0629 24.612 81.4349 22.728 82.1789 21.168C82.9469 19.608 84.0149 18.432 85.3829 17.64C86.7509 16.848 88.3349 16.452 90.1349 16.452C91.8629 16.452 93.3749 16.836 94.6709 17.604C95.9909 18.348 97.0109 19.452 97.7309 20.916C98.4749 22.38 98.8469 24.156 98.8469 26.244C98.8469 28.428 98.4629 30.288 97.6949 31.824C96.9509 33.36 95.8949 34.524 94.5269 35.316C93.1589 36.084 91.5749 36.468 89.7749 36.468ZM90.0629 33.876C90.9029 33.876 91.5269 33.396 91.9349 32.436C92.3429 31.476 92.5469 29.7 92.5469 27.108C92.5469 24.924 92.4389 23.244 92.2229 22.068C92.0069 20.892 91.7069 20.088 91.3229 19.656C90.9389 19.224 90.4469 19.008 89.8469 19.008C89.0069 19.008 88.3709 19.488 87.9389 20.448C87.5309 21.408 87.3269 23.208 87.3269 25.848C87.3269 28.008 87.4349 29.676 87.6509 30.852C87.8669 32.004 88.1669 32.796 88.5509 33.228C88.9589 33.66 89.4629 33.876 90.0629 33.876ZM109.175 20.124V30.276C109.175 30.996 109.319 31.5 109.607 31.788C109.895 32.052 110.303 32.184 110.831 32.184C111.287 32.184 111.767 32.064 112.271 31.824C112.775 31.584 113.171 31.284 113.459 30.924C113.699 31.116 113.867 31.404 113.963 31.788C114.083 32.172 114.143 32.52 114.143 32.832C114.143 33.384 113.951 33.924 113.567 34.452C113.183 34.98 112.607 35.412 111.839 35.748C111.071 36.084 110.147 36.252 109.067 36.252C107.387 36.252 106.031 35.772 104.999 34.812C103.991 33.852 103.487 32.256 103.487 30.024V20.124H101.219V17.928C101.843 17.832 102.443 17.436 103.019 16.74C103.619 16.02 104.123 15.132 104.531 14.076C104.963 12.996 105.239 11.928 105.359 10.872C105.791 10.8 106.187 10.764 106.547 10.764C107.411 10.764 108.047 11.016 108.455 11.52C108.887 12 109.103 12.54 109.103 13.14V16.92H113.279C113.279 17.64 113.243 18.264 113.171 18.792C113.099 19.296 112.943 19.74 112.703 20.124H109.175Z" fill="#1E144F"/>
<path d="M133.942 31.788C133.942 32.364 134.086 32.844 134.374 33.228C134.686 33.612 135.118 33.828 135.67 33.876V34.884C135.286 35.316 134.686 35.652 133.87 35.892C133.078 36.132 132.274 36.252 131.458 36.252C130.642 36.252 129.946 36.036 129.37 35.604C128.794 35.172 128.41 34.572 128.218 33.804C127.066 35.436 125.422 36.252 123.286 36.252C121.606 36.252 120.298 35.736 119.362 34.704C118.426 33.672 117.958 32.28 117.958 30.528V20.628C117.958 20.22 117.802 19.932 117.49 19.764C117.202 19.596 116.77 19.512 116.194 19.512V17.928C116.554 17.64 117.238 17.352 118.246 17.064C119.278 16.776 120.37 16.632 121.522 16.632C122.194 16.632 122.686 16.68 122.998 16.776C123.31 16.848 123.526 17.016 123.646 17.28C123.766 17.544 123.826 17.964 123.826 18.54V30.636C123.826 31.38 123.946 31.944 124.186 32.328C124.45 32.688 124.87 32.868 125.446 32.868C125.926 32.868 126.394 32.724 126.85 32.436C127.33 32.124 127.738 31.752 128.074 31.32V20.628C128.074 19.884 127.402 19.512 126.058 19.512V17.928C126.442 17.616 127.138 17.328 128.146 17.064C129.178 16.776 130.306 16.632 131.53 16.632C132.514 16.632 133.162 16.752 133.474 16.992C133.786 17.208 133.942 17.724 133.942 18.54V31.788ZM145.507 36.36C144.331 36.36 143.155 36.192 141.979 35.856C140.827 35.496 139.879 34.992 139.135 34.344C138.391 33.696 138.019 32.928 138.019 32.04C138.019 31.2 138.259 30.528 138.739 30.024C139.219 29.496 139.831 29.232 140.575 29.232C141.247 29.232 141.811 29.448 142.267 29.88C142.747 30.312 142.987 30.876 142.987 31.572C142.987 31.884 142.939 32.16 142.843 32.4C142.771 32.616 142.627 32.856 142.411 33.12C142.603 33.312 142.963 33.468 143.491 33.588C144.019 33.684 144.583 33.732 145.183 33.732C145.999 33.732 146.635 33.588 147.091 33.3C147.571 32.988 147.811 32.592 147.811 32.112C147.811 31.464 147.511 30.912 146.911 30.456C146.311 29.976 145.351 29.388 144.031 28.692C142.687 27.972 141.667 27.384 140.971 26.928C140.275 26.448 139.651 25.812 139.099 25.02C138.571 24.204 138.307 23.208 138.307 22.032C138.307 20.4 138.979 19.08 140.323 18.072C141.667 17.064 143.527 16.56 145.903 16.56C148.231 16.56 149.959 16.98 151.087 17.82C152.239 18.636 152.815 19.62 152.815 20.772C152.815 21.492 152.575 22.08 152.095 22.536C151.639 22.992 151.075 23.22 150.403 23.22C149.779 23.22 149.239 23.04 148.783 22.68C148.351 22.296 148.135 21.804 148.135 21.204C148.135 20.892 148.183 20.58 148.279 20.268C148.375 19.932 148.507 19.656 148.675 19.44C148.195 19.056 147.475 18.864 146.515 18.864C145.747 18.864 145.147 19.044 144.715 19.404C144.283 19.764 144.067 20.22 144.067 20.772C144.067 21.516 144.367 22.128 144.967 22.608C145.567 23.088 146.527 23.664 147.847 24.336C149.095 24.984 150.079 25.548 150.799 26.028C151.519 26.508 152.143 27.144 152.671 27.936C153.199 28.728 153.463 29.7 153.463 30.852C153.463 32.724 152.695 34.116 151.159 35.028C149.647 35.916 147.763 36.36 145.507 36.36ZM163.321 32.904C163.321 33.96 162.985 34.824 162.313 35.496C161.641 36.144 160.765 36.468 159.685 36.468C158.581 36.468 157.693 36.144 157.021 35.496C156.349 34.824 156.013 33.96 156.013 32.904C156.013 31.824 156.349 30.96 157.021 30.312C157.693 29.664 158.581 29.34 159.685 29.34C160.765 29.34 161.641 29.664 162.313 30.312C162.985 30.96 163.321 31.824 163.321 32.904Z" fill="#72569D"/>
<path d="M42 9.00391C42 6.28998 39.792 4.08203 37.0781 4.08203C34.3642 4.08203 32.1562 6.28998 32.1562 9.00391C32.1562 11.1427 33.528 12.9663 35.4375 13.6436V32.2188C35.4375 38.0085 30.7272 42.7188 24.9375 42.7188C19.3817 42.7188 14.8206 38.3811 14.4611 32.9146L22.0808 22.4377C22.1319 22.3673 22.1748 22.2935 22.2132 22.2185C24.5004 19.5134 25.7578 15.9761 25.7578 12.2282C25.7578 10.0848 25.3526 8.02585 24.5543 6.10221C24.5278 6.03339 24.4991 5.96563 24.4682 5.89911C24.4541 5.86629 24.4408 5.83323 24.4264 5.8005L24.4213 5.80272C23.8804 4.73352 22.7723 4 21.4922 4C19.68 4 18.2109 5.4691 18.2109 7.28125C18.2109 9.0934 19.68 10.5625 21.4922 10.5625C21.7913 10.5625 22.0808 10.5217 22.3561 10.4468C22.4356 11.0305 22.4766 11.6247 22.4766 12.2282C22.4766 18.4112 18.1711 23.4414 12.8789 23.4414C7.58674 23.4414 3.28125 18.4112 3.28125 12.2282C3.28125 11.6247 3.32218 11.0304 3.40167 10.4468C3.67705 10.5217 3.96654 10.5625 4.26562 10.5625C6.07778 10.5625 7.54688 9.0934 7.54688 7.28125C7.54688 5.4691 6.07778 4 4.26562 4C2.98553 4 1.87737 4.73352 1.33662 5.8028L1.33153 5.80059C1.31718 5.83332 1.30389 5.86638 1.2897 5.89919C1.25877 5.96571 1.23006 6.03347 1.20356 6.1023C0.405234 8.02577 0 10.0848 0 12.2282C0 15.8636 1.1833 19.301 3.34162 21.9727C3.36902 22.0195 3.3988 22.0653 3.43137 22.1101L11.167 32.7367C11.4404 40.0965 17.5119 46 24.9375 46C32.5365 46 38.7188 39.8178 38.7188 32.2188V13.6436C40.6283 12.9663 42 11.1427 42 9.00391ZM15.056 26.5178L12.8783 29.5122L10.698 26.5171C11.4112 26.6528 12.14 26.7227 12.8789 26.7227C13.6165 26.7227 14.344 26.653 15.056 26.5178ZM37.0781 10.6445C36.1735 10.6445 35.4375 9.90855 35.4375 9.00391C35.4375 8.09927 36.1735 7.36328 37.0781 7.36328C37.9828 7.36328 38.7188 8.09927 38.7188 9.00391C38.7188 9.90855 37.9828 10.6445 37.0781 10.6445Z" fill="#72569D"/>
</svg>
