<svg width="84" height="84" viewBox="0 0 84 84" fill="none" xmlns="http://www.w3.org/2000/svg">
<g clip-path="url(#clip0_221_15)">
<path fill-rule="evenodd" clip-rule="evenodd" d="M23.7963 7.16591C16.5451 7.15656 15.1192 14.8175 17.7365 18.6785C10.8839 18.9123 7.1597 26.4797 10.4524 32.5214C4.79129 34.3232 4.79129 44.6798 8.38393 48.3769C3.96097 52.8977 7.1597 63.0297 12.4504 63.418C10.8792 69.909 15.3819 76.4702 20.6209 76.8913C22.1827 79.8958 24.7436 81.6647 27.5577 82.3902H33.8239C38.2376 81.2951 41.924 77.9443 41.9381 73.0959C41.9381 73.0818 41.9381 73.0631 41.9381 73.0444V27.5702V5.96317C37.5388 -0.0927067 28.815 -1.00046 23.7963 7.16591Z" fill="#F47C7C"/>
<path fill-rule="evenodd" clip-rule="evenodd" d="M41.9385 27.5702V73.0446V73.0961C41.9526 77.9444 45.6438 81.2953 50.0527 82.3904H56.3189C59.133 81.6651 61.6939 79.896 63.2558 76.8915C68.4948 76.4703 72.9975 69.9092 71.431 63.4182C76.7169 63.0297 79.9158 52.8978 75.4929 48.3771C79.0857 44.68 79.0857 34.3233 73.4244 32.5216C76.7169 26.4799 72.9929 18.9125 66.1403 18.6785C68.7574 14.8176 67.3363 7.15657 60.0851 7.16592C55.0618 -1.00045 46.3426 -0.0925286 41.9383 5.96318V27.5702H41.9385Z" fill="#EE6161"/>
<path fill-rule="evenodd" clip-rule="evenodd" d="M69.2688 52.0552C71.0371 57.0299 68.0728 64.2088 63.6405 64.5319C65.2072 71.0228 60.7045 77.584 55.4653 78.0006C54.4381 79.9849 52.9748 81.4262 51.2909 82.3902H56.3189C59.1331 81.6649 61.6939 79.8958 63.2558 76.8913C68.4948 76.4702 72.9975 69.909 71.431 63.418C76.717 63.0295 79.9159 52.8977 75.4929 48.3769C79.0857 44.6798 79.0857 34.3232 73.4244 32.5215C76.717 26.4797 72.9929 18.9123 66.1403 18.6783C68.7575 14.8175 67.3364 7.1564 60.0851 7.16575C56.1922 0.833925 50.0762 -0.0411842 45.4749 2.70128C47.9842 3.41266 50.3997 5.20029 52.2946 8.27974C53.5375 8.27514 54.6069 8.49975 55.5168 8.89284C59.9115 10.7883 60.5166 16.5959 58.3497 19.7923C65.2022 20.0263 68.9263 27.5937 65.6337 33.6354C71.2949 35.4372 71.2949 45.7938 67.7022 49.4909C68.4152 50.2208 68.9312 51.096 69.2688 52.0552Z" fill="#E94444"/>
<path d="M19.405 60.533C19.3003 61.2045 19.7599 61.8337 20.4314 61.9384C28.9864 63.2717 30.1289 67.6982 30.1686 71.4057C30.1759 72.0808 30.7253 72.6232 31.399 72.6232H31.4124C32.092 72.616 32.6371 72.0592 32.6297 71.3796C32.5576 64.6186 28.6913 60.7351 20.8105 59.5068C20.1402 59.4016 19.5098 59.8613 19.405 60.533Z" fill="black"/>
<path d="M36.2508 46.1541C36.2508 45.4745 35.6998 44.9234 35.0201 44.9234C34.3404 44.9234 33.7895 45.4743 33.7895 46.1541C33.7895 48.2883 32.7941 49.7211 31.959 50.5472C30.8052 51.6887 29.1716 52.415 27.8007 52.4019C27.1223 52.3904 26.5643 52.9395 26.557 53.6192C26.5497 54.2988 27.0946 54.8556 27.7743 54.863C27.7964 54.8632 27.8183 54.8633 27.8404 54.8633C29.8503 54.8633 32.0855 53.8839 33.6899 52.2969C34.8582 51.1411 36.2508 49.1374 36.2508 46.1541Z" fill="black"/>
<path d="M65.0188 43.6687C65.6983 43.6613 66.2434 43.1043 66.236 42.4247C66.2286 41.7496 65.679 41.2076 65.0057 41.2076C64.9898 41.2076 64.9745 41.2077 64.9584 41.2077C63.8526 41.2077 62.5418 40.616 61.6091 39.6933C61.0298 39.1204 60.3581 38.1882 60.1688 36.8515C63.5098 35.0582 65.6463 31.6353 65.6263 27.8863C65.6227 27.2089 65.0725 26.6624 64.3959 26.6624C64.3936 26.6624 64.3914 26.6624 64.3891 26.6624C63.7094 26.6661 63.1615 27.2201 63.1651 27.8996C63.1852 31.6624 60.4751 34.2876 57.7802 35.2203C54.8994 36.2171 52.1371 35.4718 50.391 33.2263C49.9739 32.6898 49.2007 32.5931 48.6641 33.0102C48.1276 33.4274 48.0309 34.2006 48.4481 34.7369C50.1577 36.9351 52.634 38.1112 55.3214 38.1112C56.1445 38.1112 56.9876 37.9995 57.8343 37.7744C58.2076 39.4656 59.0993 40.6724 59.8784 41.443C61.2701 42.8196 63.2118 43.669 64.9604 43.669C64.9798 43.669 64.9994 43.6688 65.0188 43.6687Z" fill="black"/>
<path d="M52.4644 72.6231H52.4779C53.1514 72.6231 53.7008 72.0809 53.7082 71.4058C53.7479 67.6983 54.8906 63.2717 63.4456 61.9384C64.1171 61.8337 64.5767 61.2045 64.4718 60.533C64.3673 59.8615 63.7393 59.4019 63.0665 59.5066C55.1859 60.7348 51.3196 64.6185 51.2471 71.3795C51.2397 72.0589 51.7847 72.6157 52.4644 72.6231Z" fill="black"/>
<path d="M56.1023 54.8628C56.7819 54.8556 57.3269 54.2986 57.3197 53.6191C57.3123 52.9439 56.7628 52.4017 56.0893 52.4017C56.0713 52.4019 56.0529 52.4019 56.0347 52.402C54.6712 52.402 53.0598 51.677 51.9174 50.547C51.0825 49.7209 50.0871 48.2882 50.0871 46.1539C50.0871 45.4743 49.5362 44.9232 48.8565 44.9232C48.1768 44.9232 47.6259 45.4742 47.6259 46.1539C47.6259 49.1372 49.0183 51.141 50.1865 52.2967C51.7909 53.8838 54.0259 54.8631 56.036 54.8631C56.0582 54.8633 56.0803 54.8631 56.1023 54.8628Z" fill="black"/>
<path d="M18.8849 41.2076C18.2067 41.1994 17.6486 41.7452 17.641 42.4248C17.6336 43.1043 18.1785 43.6613 18.8582 43.6687C18.8777 43.6688 18.8971 43.669 18.9166 43.669C20.6652 43.669 22.607 42.8197 23.9988 41.443C24.7777 40.6724 25.6696 39.4654 26.0428 37.7739C26.8897 37.9992 27.7328 38.1111 28.5564 38.1111C31.2431 38.1111 33.7198 36.9347 35.429 34.7369C35.8462 34.2005 35.7496 33.4272 35.2129 33.0102C34.6766 32.593 33.9034 32.6898 33.4862 33.2263C31.7405 35.4708 28.9797 36.2166 26.1012 35.2213C23.4057 34.2894 20.6939 31.6637 20.7119 27.899C20.7152 27.2194 20.1667 26.6659 19.4872 26.6626C19.4852 26.6626 19.4833 26.6626 19.4811 26.6626C18.8044 26.6626 18.2539 27.2098 18.2507 27.8873C18.2328 31.6358 20.3694 35.0574 23.7084 36.8507C23.5192 38.1878 22.8474 39.1204 22.2679 39.6934C21.3257 40.6253 20.0045 41.2161 18.8849 41.2076Z" fill="black"/>
<path d="M78.7872 37.3557C78.1528 34.8272 76.8554 32.941 75.0716 31.9111C76.3237 28.8076 76.1188 25.3568 74.4613 22.4541C73.0273 19.9428 70.7387 18.2639 68.0229 17.6754C68.9044 15.2926 68.7616 12.41 67.5485 10.1256C66.2101 7.60544 63.8197 6.14168 60.7709 5.95563C58.3042 2.26012 54.8883 0.155035 51.0902 0.00819884C47.7132 -0.123051 44.3861 1.35729 41.9386 4.02215C39.4935 1.35696 36.17 -0.123379 32.7892 0.00803478C28.9905 0.154871 25.5749 2.25996 23.1103 5.95546C20.0604 6.14184 17.6687 7.60643 16.3296 10.1279C15.1167 12.4118 14.9737 15.2936 15.854 17.6753C13.138 18.2636 10.8495 19.9424 9.41554 22.4539C7.75769 25.3572 7.55327 28.8084 8.80572 31.9125C7.20808 32.8396 5.98549 34.4679 5.29807 36.6212C5.09135 37.2686 5.44868 37.9611 6.09607 38.1678C6.74362 38.3744 7.43597 38.0172 7.64268 37.3698C8.07482 36.0165 8.9775 34.2802 10.8243 33.6947C11.1746 33.5836 11.457 33.3217 11.5941 32.9808C11.7313 32.6399 11.7088 32.2555 11.5329 31.9328C10.0971 29.298 10.1044 26.2108 11.5528 23.6745C12.8679 21.3714 15.1372 19.9987 17.7785 19.9085C18.2262 19.8932 18.6303 19.6358 18.8334 19.2365C19.0365 18.8372 19.0065 18.3589 18.7551 17.9881C17.5165 16.1606 17.4105 13.3406 18.5035 11.2826C19.2027 9.96581 20.6852 8.3977 23.78 8.39672C25.6098 8.44134 27.3976 8.76225 29.1529 12.084C29.3736 12.5017 29.8005 12.7399 30.242 12.7399C30.4359 12.7399 30.6326 12.694 30.8159 12.5972C31.4168 12.2796 31.6465 11.5351 31.329 10.9343C29.7075 7.86565 27.8202 6.66159 25.9875 6.20205C27.8944 3.87893 30.2917 2.5679 32.8844 2.46782C35.8103 2.35495 38.7073 3.80986 40.708 6.37596V23.8188C38.1946 21.3547 34.7696 20.3081 31.1381 21.0386C30.4718 21.1724 30.0403 21.8213 30.1744 22.4876C30.3084 23.1538 30.957 23.5861 31.6234 23.4513C36.0437 22.5627 39.1822 25.1094 40.708 27.8778V73.0416V73.0451V73.098C40.6936 77.7738 36.824 80.3849 33.5047 81.2008C29.4185 82.205 24.1881 81.0869 21.713 76.3245C21.5175 75.9483 21.1422 75.6993 20.7198 75.6653C18.7589 75.5076 16.8143 74.2844 15.3846 72.3091C13.5921 69.8327 12.9424 66.6172 13.6467 63.7081C13.7319 63.3567 13.658 62.9857 13.4449 62.6935C13.232 62.4013 12.9012 62.2178 12.5408 62.1912C10.8286 62.0655 9.17814 60.4354 8.23331 57.9372C7.35328 55.61 7.15968 52.5574 8.43264 50.3414C10.4588 52.3742 13.421 53.4722 16.9726 53.4722C17.0927 53.4722 17.2138 53.4709 17.3352 53.4685C18.0146 53.4544 18.554 52.8921 18.54 52.2126C18.5261 51.5332 17.9642 50.9954 17.2843 51.0077C14.4024 51.0682 12.0788 50.3404 10.4647 48.89C10.0636 48.5295 8.41214 46.8982 8.0261 45.5556C7.62218 44.6037 7.37674 43.5863 7.24532 42.5624C7.15886 41.8883 6.54248 41.4122 5.86802 41.4986C5.19389 41.5851 4.71761 42.2018 4.80424 42.8759C5.08364 45.0514 5.77549 46.9588 6.78349 48.3697C4.60818 51.3586 4.73582 55.6466 5.93118 58.8075C7.01843 61.6827 8.86462 63.6764 11.0201 64.3803C10.5847 67.6277 11.435 71.0499 13.3908 73.7518C15.0872 76.0955 17.4097 77.6277 19.8468 78.0345C22.3307 82.277 26.6178 84.0003 30.6836 84.0002C31.854 84.0002 33.0068 83.8573 34.092 83.5905C36.5882 82.9769 38.8421 81.6949 40.4388 79.9808C41.0332 79.3426 41.5344 78.6524 41.9385 77.9194C42.3426 78.6524 42.8436 79.3426 43.438 79.9808C45.0345 81.6951 47.2887 82.9769 49.7848 83.5905C50.8704 83.8574 52.0226 84.0002 53.1932 84.0002C57.2585 84.0002 61.5459 82.2767 64.0298 78.0352C65.8188 77.7394 67.5332 76.8472 69.0241 75.4292C69.5164 74.9608 69.5359 74.1818 69.0677 73.6895C68.5991 73.1971 67.8205 73.1776 67.328 73.6459C66.0632 74.8488 64.6211 75.547 63.1572 75.665C62.7349 75.6989 62.3595 75.948 62.1641 76.324C59.6892 81.0863 54.4589 82.2048 50.3724 81.2003C47.0531 80.3844 43.1836 77.7733 43.1691 73.0976C43.1691 73.0798 43.1691 73.0623 43.1691 73.0446V73.0411V27.8773C44.6949 25.1091 47.8326 22.5624 52.2537 23.4509C52.9202 23.5851 53.5687 23.1535 53.7027 22.4872C53.8368 21.821 53.4053 21.1721 52.7389 21.0382C49.1075 20.3075 45.6826 21.354 43.1691 23.8184V6.37579C45.172 3.80969 48.0698 2.35429 50.9952 2.46733C53.5874 2.56757 55.985 3.87843 57.8932 6.20139C56.0588 6.66077 54.17 7.86482 52.5482 10.9338C52.2306 11.5346 52.4605 12.2791 53.0613 12.5967C53.2445 12.6935 53.4412 12.7395 53.635 12.7395C54.0766 12.7395 54.5034 12.5011 54.724 12.0835C56.4793 8.76192 58.2694 8.44085 60.1017 8.39622C63.1946 8.39721 64.6762 9.964 65.375 11.2796C66.468 13.3378 66.3615 16.1588 65.1218 17.9876C64.8705 18.3584 64.8405 18.8367 65.0434 19.236C65.2465 19.6353 65.6508 19.8927 66.0983 19.908C68.7397 19.9982 71.0089 21.3709 72.3242 23.6742C73.7725 26.2105 73.7799 29.2976 72.3439 31.9325C72.1683 32.255 72.1457 32.6391 72.2825 32.9798C72.4193 33.3206 72.7014 33.5824 73.0513 33.6938C75.2072 34.38 76.0748 36.6576 76.4001 37.9542C77.0426 40.5152 76.7393 43.5952 75.7582 45.7608C75.4427 46.4572 74.5623 48.0736 73.2498 49.0307C71.644 50.3869 69.3796 51.0651 66.5926 51.007C65.9097 50.9929 65.3509 51.5324 65.3369 52.2119C65.3228 52.8914 65.8622 53.4537 66.5416 53.4678C66.6632 53.4703 66.7839 53.4716 66.9042 53.4716C70.4555 53.4716 73.4178 52.3733 75.4442 50.3406C76.7174 52.5569 76.5238 55.6103 75.6437 57.9383C74.6995 60.4355 73.0506 62.0647 71.3408 62.1904C70.9803 62.2169 70.6499 62.4004 70.437 62.6922C70.224 62.9841 70.15 63.3549 70.2347 63.7061C70.6706 65.5131 70.5956 67.4359 70.0183 69.2669C69.8139 69.9151 70.1735 70.6063 70.8217 70.8107C70.9447 70.8496 71.0696 70.8679 71.1921 70.8679C71.7148 70.8679 72.1998 70.5321 72.3654 70.0073C72.9465 68.165 73.1138 66.2424 72.862 64.3791C75.015 63.6751 76.8592 61.6824 77.9458 58.8087C79.1415 55.6467 79.2688 51.357 77.0925 48.3676C79.0119 45.6655 79.7442 41.1698 78.7872 37.3557Z" fill="black"/>
</g>
<defs>
<clipPath id="clip0_221_15">
<rect width="84" height="84" fill="white"/>
</clipPath>
</defs>
</svg>
